<svg width="1012" height="383" viewBox="0 0 1012 383" fill="none" xmlns="http://www.w3.org/2000/svg">
<g clip-path="url(#clip0_1258_6819)">
<path d="M133.186 22.5899V292.403H82.4956V22.5899H133.186ZM0 57.2448V13.6787H216.178V57.2448H0Z" fill="white"/>
<path d="M314.5 297.353C295.947 297.353 280.872 293.062 269.276 284.482C257.681 275.57 249.232 263.359 243.931 247.846C238.961 232.004 236.477 213.851 236.477 193.389C236.477 172.596 239.127 154.278 244.428 138.435C249.73 122.594 258.012 110.382 269.276 101.801C280.872 92.8896 295.947 88.4341 314.5 88.4341C326.427 88.4341 336.366 90.0843 344.317 93.3848C352.601 96.6851 359.227 100.646 364.196 105.266C369.497 109.887 373.473 114.508 376.123 119.128C378.773 123.419 380.596 126.884 381.589 129.525H382.583V88.9291H434.764V292.403H391.032L382.583 259.232H381.589C380.927 261.543 379.104 264.843 376.123 269.134C373.142 273.094 368.999 277.385 363.699 282.006C358.729 286.297 352.103 289.927 343.821 292.898C335.869 295.868 326.096 297.353 314.5 297.353ZM335.372 254.777C347.631 254.777 357.238 252.137 364.196 246.856C371.153 241.576 375.958 234.314 378.608 225.073C381.258 215.502 382.583 205.105 382.583 193.884C382.583 181.672 381.093 171.111 378.111 162.199C375.461 152.958 370.657 145.862 363.699 140.911C357.073 135.631 347.631 132.99 335.372 132.99C322.451 132.99 312.346 135.796 305.057 141.406C298.101 147.017 293.131 154.443 290.148 163.685C287.498 172.596 286.173 182.662 286.173 193.884C286.173 205.105 287.498 215.336 290.148 224.578C293.131 233.819 298.101 241.245 305.057 246.856C312.346 252.137 322.451 254.777 335.372 254.777Z" fill="white"/>
<path d="M596.338 297.353C583.748 297.353 573.145 295.538 564.532 291.908C556.249 287.946 549.458 283.326 544.157 278.046C539.187 272.765 535.377 267.98 532.727 263.689C530.407 259.398 529.082 256.922 528.75 256.263H527.757V383H475.576V88.9292H519.805L528.254 133.485H529.248C529.579 132.495 530.738 129.69 532.727 125.069C534.714 120.449 538.193 115.333 543.163 109.722C548.132 104.111 554.924 99.3256 563.538 95.3651C572.152 91.0745 582.919 88.9292 595.84 88.9292C616.381 88.9292 632.781 93.3849 645.04 102.296C657.63 111.207 666.74 123.584 672.372 139.426C678.336 155.268 681.317 173.585 681.317 194.379C681.317 215.502 678.336 233.819 672.372 249.332C666.409 264.514 657.132 276.395 644.542 284.977C632.284 293.228 616.215 297.353 596.338 297.353ZM580.932 254.777C594.846 254.777 605.449 251.972 612.736 246.361C620.356 240.42 625.493 232.829 628.143 223.587C631.125 214.016 632.615 204.116 632.615 193.884C632.615 183.653 631.125 173.916 628.143 164.675C625.161 155.434 619.695 148.008 611.744 142.397C604.123 136.786 593.521 133.98 579.938 133.98C567.679 133.98 557.74 136.621 550.12 141.902C542.499 146.852 536.868 153.948 533.223 163.19C529.91 172.101 528.254 182.333 528.254 193.884C528.254 205.766 530.075 216.327 533.72 225.568C537.364 234.48 542.997 241.576 550.617 246.856C558.568 252.137 568.673 254.777 580.932 254.777Z" fill="white"/>
<path d="M720.174 292.403V88.9292H770.864V292.403H720.174Z" fill="white"/>
<path d="M909.129 297.353C886.6 297.353 867.549 292.898 851.978 283.986C836.738 275.075 825.308 262.864 817.688 247.351C810.068 231.509 806.258 213.521 806.258 193.389C806.258 172.926 810.068 154.939 817.688 139.426C825.308 123.584 836.738 111.207 851.978 102.296C867.549 93.3849 886.765 88.9292 909.625 88.9292C943.088 88.9292 968.434 98.5005 985.661 117.643C1003.22 136.786 1012 162.034 1012 193.389C1012 212.862 1008.36 230.518 1001.07 246.361C993.779 262.203 982.514 274.745 967.274 283.986C952.034 292.898 932.652 297.353 909.129 297.353ZM909.129 254.777C924.038 254.777 935.303 251.642 942.923 245.37C950.874 239.1 956.175 231.179 958.825 221.608C961.475 211.706 962.8 201.806 962.8 191.904C962.8 181.342 961.475 171.275 958.825 161.704C956.175 152.133 950.874 144.212 942.923 137.942C935.303 131.34 924.038 128.04 909.129 128.04C894.552 128.04 883.287 131.34 875.335 137.942C867.716 144.212 862.414 152.133 859.433 161.704C856.783 171.275 855.457 181.342 855.457 191.904C855.457 201.806 856.783 211.706 859.433 221.608C862.414 231.179 867.716 239.1 875.335 245.37C883.287 251.642 894.552 254.777 909.129 254.777Z" fill="white"/>
<path d="M745.324 68.3929C764.206 68.3929 779.513 53.0826 779.513 34.1964C779.513 15.3103 764.206 0 745.324 0C726.442 0 711.135 15.3103 711.135 34.1964C711.135 53.0826 726.442 68.3929 745.324 68.3929Z" fill="#86DD14"/>
</g>
<defs>
<clipPath id="clip0_1258_6819">
<rect width="1012" height="383" fill="white"/>
</clipPath>
</defs>
</svg>
